<?xml version="1.0" encoding="UTF-8"?>
<svg width="26px" height="25px" viewBox="0 0 26 25" version="1.1" xmlns="http://www.w3.org/2000/svg" xmlns:xlink="http://www.w3.org/1999/xlink">
    <!-- Generator: Sketch 49.3 (51167) - http://www.bohemiancoding.com/sketch -->
    <title>Marker</title>
    <desc>Created with Sketch.</desc>
    <defs>
        <path d="M0,3.46627154 C0,9.42060767 2.90841611,12.4581941 7.85855699,12.9040401 L3.50843319,16.7624833 C2.43340259,17.7166771 2.38340117,19.387558 3.40009677,20.4000868 L4.56679664,21.5667867 C5.59182581,22.5918159 7.25853992,22.5293141 8.20440017,21.4584503 L12.0836772,17.079159 C16.0962914,21.8084602 15.8087833,21.4709506 15.8462843,21.5084517 C16.8004782,22.5251473 18.4255244,22.5793155 19.4380532,21.5667867 L20.6047531,20.4000868 C21.6089483,19.3958916 21.5714473,17.7625118 20.5380845,16.7999844 L16.0337897,12.6206987 L16.3337982,12.2998563 C17.9505109,12.8040373 19.5463896,12.5915312 20.9297623,11.2123253 C21.8006205,10.3414672 23.5006688,7.89139748 23.7131749,7.58305537 C24.5506987,6.39552157 23.4089996,4.79964282 22.1547972,4.64130498 C22.0381272,3.72044544 21.1714359,2.9120891 20.3255785,2.80791947 C20.1630739,1.51621604 18.550528,0.428685085 17.3838281,1.24954178 C17.075486,1.46204783 14.6254163,3.166263 13.7545581,4.03712112 C12.4170201,5.37465918 12.1420122,6.96637115 12.6670272,8.63308526 L12.2003472,9.06226414 L4.20011954,1.63705281 C2.60840757,0.157844043 0,1.28704285 0,3.46627154 Z M15.8212836,10.849815 L15.0545951,11.7123396 L13.1837086,9.97479011 L14.1212352,9.14559984 C13.3378796,7.77056071 13.4795503,6.19968267 14.7004184,4.97881459 C15.5129415,4.16212468 18.1505166,2.34123952 18.1505166,2.34123952 C18.4671923,2.11206633 19.1963797,2.8537541 18.9588729,3.16209621 L15.5837769,6.53302549 C15.2921019,6.87470188 16.0379565,7.63305679 16.3921332,7.35388218 L19.9797353,4.17045825 C20.2880774,3.94545184 21.0172648,4.67047248 20.7922584,4.98298137 L17.6088345,8.57058348 C17.3338267,8.92476022 18.0880148,9.67478157 18.433858,9.3831066 L21.8047872,6.01217733 C22.1131294,5.77050378 22.8548171,6.50385799 22.6256439,6.82053367 C22.6256439,6.82053367 20.8047588,9.45394195 19.9880689,10.2747986 C18.7547004,11.4998335 17.1838224,11.6248371 15.8212836,10.849815 Z M9.11275936,13.5790594 L11.2128191,16.049963 L7.20853849,20.5750918 C6.76269247,21.075106 5.98767041,21.1042735 5.50849011,20.6250932 L4.34179024,19.4583934 C3.86677672,18.9833798 3.89177743,18.204191 4.39179166,17.758345 L9.11275936,13.5790594 Z M1.33337128,3.46627154 C1.33337128,2.44957593 2.54590579,1.91622742 3.29592714,2.61208056 L19.6297253,17.7791789 C20.1130724,18.2291917 20.1297396,18.9917134 19.6588928,19.4583934 L18.492193,20.6250932 C18.025513,21.0917732 17.2671581,21.0792728 16.8171453,20.6000925 L9.20859542,11.6331706 C3.37509606,11.6331706 1.33337128,8.34974386 1.33337128,3.46627154 Z" id="path-1"></path>
    </defs>
    <g id="Page-1" stroke="none" stroke-width="1" fill="none" fill-rule="evenodd">
        <g id="Marker" transform="translate(1.000000, 1.000000)" fill-rule="nonzero">
            <g id="Shape">
                <use fill="#22A7F0" fill-rule="evenodd" xlink:href="#path-1"></use>
                <path stroke="#FFFFFF" stroke-width="1" d="M12.043643,8.23465446 C11.6727793,6.53518445 12.1141239,4.97044853 13.4010047,3.68356773 C13.8088075,3.27576499 14.5367152,2.6934919 15.4830108,1.9943098 C16.0835441,1.55059844 16.6953919,1.11676046 17.0961176,0.840613115 C18.4369505,-0.102758651 20.3153769,0.866402144 20.7486039,2.38801054 C21.5837462,2.63736868 22.3217191,3.3666503 22.5747106,4.21874612 C24.0839267,4.65158005 25.0725931,6.52305377 24.1248709,7.86679183 C23.8316584,8.29223742 23.4123229,8.88477087 22.9707537,9.48351569 C22.2725248,10.4302777 21.6912045,11.15799 21.2827821,11.5664116 C20.0956213,12.7499966 18.6991853,13.2082172 17.1792662,13.0014499 L20.8788755,16.4341135 C22.1215745,17.5916274 22.160582,19.5513647 20.9583065,20.7536402 L19.7916066,21.9203401 C18.5886733,23.1232734 16.6400242,23.0820764 15.4950418,21.8644653 C15.4916968,21.8612949 15.4878263,21.857616 15.483266,21.8532816 C15.4546495,21.8228505 15.4546495,21.8228505 15.428302,21.7922869 C15.3846063,21.7416553 15.2861953,21.6261068 15.0745445,21.3768969 C14.874821,21.1417308 14.5800269,20.7943473 13.9778675,20.0846127 C13.2334717,19.2072086 12.6508072,18.5204374 12.0755357,17.8424057 L8.57914883,21.789454 C7.43860448,23.080731 5.43806632,23.1451631 4.21324325,21.9203401 L3.04727011,20.7543654 C1.82624314,19.5383427 1.886028,17.5339766 3.17665176,16.388423 L6.70908702,13.2552477 C2.04162099,12.4218305 -0.5,9.07925315 -0.5,3.46627154 C-0.5,0.852121167 2.62761638,-0.506879832 4.54025722,1.2705745 L12.043643,8.23465446 Z M21.9288275,6.46355475 C21.9273897,6.46297545 21.9259862,6.46243702 21.9246187,6.46194019 C21.9279965,6.46316739 21.9318857,6.46421912 21.9362945,6.46498994 Z M22.0100185,6.51394215 L18.7562094,9.76532326 C17.9476254,10.4472615 16.5739674,9.08810126 17.2348424,8.23872521 L20.2921814,4.79699621 C20.2756587,4.77505893 20.2556044,4.75179827 20.2329279,4.72918306 C20.2111781,4.70749198 20.1888338,4.68820838 20.1676452,4.67213631 L16.7016557,7.74655996 C15.8771245,8.39648452 14.516128,7.01359524 15.2304419,6.17925379 L18.4584844,2.96094348 C18.4435009,2.94134412 18.425845,2.92083594 18.4061201,2.90079038 C18.3783566,2.87257544 18.3495304,2.84835963 18.3233672,2.82988351 C18.2081012,2.91019535 18.0512558,3.02031586 17.8639777,3.15318346 C17.4352313,3.45736476 17.0065804,3.76802923 16.6071832,4.06664794 C16.5228351,4.12971282 16.4405618,4.19167344 16.3605398,4.25241676 C15.752804,4.71373865 15.2969374,5.08815873 15.0539718,5.33236798 C14.0255007,6.36083902 13.8601227,7.67717175 14.5556805,8.89809769 L14.756745,9.25102998 L13.9281915,9.98383951 L15.0204012,10.998208 L15.716565,10.2150238 L16.0684938,10.4152036 C17.2860786,11.1077747 18.6014877,10.9472891 19.633617,9.92214603 C19.8777543,9.67676313 20.2525297,9.21893742 20.7143206,8.60997276 C20.7736633,8.53171749 20.8341674,8.45132966 20.8957282,8.36897251 C21.1951604,7.96838624 21.5068766,7.53847622 21.8122361,7.10847247 C21.9954585,6.85046078 22.135648,6.65003548 22.2205856,6.52739934 C22.1356995,6.64469656 22.127857,6.62430863 22.0656112,6.56289276 C22.0470877,6.54461626 22.0281907,6.5281401 22.0100185,6.51394215 Z M20.3351296,4.866759 C20.3356128,4.86843622 20.3361352,4.87000148 20.3366904,4.8714503 C20.3350309,4.86711956 20.3329879,4.86247304 20.3305825,4.85755646 Z M20.0945557,4.62743872 C20.0931586,4.62685665 20.0917905,4.62631056 20.0904528,4.62580107 C20.0937255,4.62704752 20.097561,4.62813091 20.1019668,4.62893794 Z M18.5061317,3.03833585 C18.5065919,3.03999158 18.5070904,3.04154961 18.5076221,3.04300587 C18.5060349,3.03865851 18.5040453,3.03396653 18.5016754,3.02898019 Z M18.428962,2.75668772 C18.4308335,2.75539555 18.4327066,2.75406976 18.4345805,2.75270968 C18.432744,2.75397756 18.4308848,2.75526147 18.4290032,2.75656133 Z M15.9851202,6.83663559 L15.9640591,6.85765668 C15.9709867,6.84954146 15.9780366,6.84256197 15.9851202,6.83663559 Z M18.1091833,9.00071792 C18.1010634,9.01030285 18.0914837,9.01995019 18.0803046,9.02955321 L18.1091833,9.00071792 Z M9.06217604,14.2916119 L4.72455227,18.1315344 C4.43801895,18.3870266 4.42449726,18.8339936 4.69534363,19.10484 L5.8620435,20.2715398 C6.13534762,20.544844 6.57824037,20.5306774 6.83409287,20.2437453 L10.5510114,16.0433567 L9.06217604,14.2916119 Z M1.83337128,3.46627154 C1.83337128,8.55129948 4.06948968,11.1331706 9.20859542,11.1331706 L9.44007787,11.1331706 L9.58984469,11.3096757 L17.1816173,20.2578058 C17.4387261,20.5315791 17.8719243,20.5382551 18.1386396,20.2715398 L19.3069143,19.1032721 C19.5743784,18.8381749 19.5662134,18.4032062 19.2894998,18.1455756 L2.95585783,2.97862233 C2.52721201,2.58093426 1.83337128,2.88414813 1.83337128,3.46627154 Z"></path>
            </g>
            <path d="M15.8212836,10.849815 L15.0545951,11.7123396 L13.1837086,9.97479011 L14.1212352,9.14559984 C13.3378796,7.77056071 13.4795503,6.19968267 14.7004184,4.97881459 C15.5129415,4.16212468 18.1505166,2.34123952 18.1505166,2.34123952 C18.4671923,2.11206633 19.1963797,2.8537541 18.9588729,3.16209621 L15.5837769,6.53302549 C15.2921019,6.87470188 16.0379565,7.63305679 16.3921332,7.35388218 L19.9797353,4.17045825 C20.2880774,3.94545184 21.0172648,4.67047248 20.7922584,4.98298137 L17.6088345,8.57058348 C17.3338267,8.92476022 18.0880148,9.67478157 18.433858,9.3831066 L21.8047872,6.01217733 C22.1131294,5.77050378 22.8548171,6.50385799 22.6256439,6.82053367 C22.6256439,6.82053367 20.8047588,9.45394195 19.9880689,10.2747986 C18.7547004,11.4998335 17.1838224,11.6248371 15.8212836,10.849815 Z M9.11275936,13.5790594 L11.2128191,16.049963 L7.20853849,20.5750918 C6.76269247,21.075106 5.98767041,21.1042735 5.50849011,20.6250932 L4.34179024,19.4583934 C3.86677672,18.9833798 3.89177743,18.204191 4.39179166,17.758345 L9.11275936,13.5790594 Z M1.33337128,3.46627154 C1.33337128,2.44957593 2.54590579,1.91622742 3.29592714,2.61208056 L19.6297253,17.7791789 C20.1130724,18.2291917 20.1297396,18.9917134 19.6588928,19.4583934 L18.492193,20.6250932 C18.025513,21.0917732 17.2671581,21.0792728 16.8171453,20.6000925 L9.20859542,11.6331706 C3.37509606,11.6331706 1.33337128,8.34974386 1.33337128,3.46627154 Z" id="Shape" fill="#FFFFFF"></path>
        </g>
    </g>
</svg>