<?xml version="1.0" encoding="UTF-8"?>
<svg width="20px" height="27px" viewBox="0 0 20 27" version="1.1" xmlns="http://www.w3.org/2000/svg" xmlns:xlink="http://www.w3.org/1999/xlink">
    <!-- Generator: Sketch 49.3 (51167) - http://www.bohemiancoding.com/sketch -->
    <title>user-marker</title>
    <desc>Created with Sketch.</desc>
    <defs></defs>
    <g id="Page-1" stroke="none" stroke-width="1" fill="none" fill-rule="evenodd">
        <g id="user-marker">
            <path d="M12.1966303,25.6146102 C12.13663,25.6742667 12.13663,25.6742667 12.0810745,25.7247391 C12.01118,25.7876442 11.9147334,25.8701596 11.7886219,25.9752524 C11.3733355,26.3213245 10.8730443,26.5 10.328125,26.5 L10.2578125,26.5 C9.69579851,26.5 9.18576709,26.3204114 8.77284177,25.9644413 C8.65072467,25.859168 8.55729142,25.7764742 8.48947953,25.713339 C8.43545609,25.6625674 8.43545609,25.6625674 8.37690562,25.6023459 C8.3424805,25.5917132 8.32523035,25.5863853 8.28902194,25.4979786 C7.4861394,24.5712664 6.61917706,23.5615939 5.68807354,22.468894 C4.71565721,21.3277113 3.81563104,20.126337 2.98809451,18.8649463 C2.14960995,17.5868679 1.44842244,16.270103 0.88518801,14.9150753 C0.296552015,13.4989365 0,12.0720485 0,10.640625 C0,9.26922053 0.270347779,7.96108611 0.81010917,6.72485841 C1.34349478,5.5032333 2.06930597,4.42747742 2.9848938,3.50325198 C3.90196336,2.57753081 4.97139261,1.84581606 6.18732272,1.31115176 C7.41659759,0.770619551 8.7216822,0.5 10.09375,0.5 C11.6328302,0.5 13.0265313,0.768352381 14.2673291,1.31010918 C15.5040533,1.85008735 16.5542575,2.59270039 17.4088481,3.53539307 C18.2556301,4.46947227 18.901267,5.55571271 19.3434844,6.78698478 C19.7813397,8.00611154 20,9.29234846 20,10.640625 C20,12.0147533 19.7309812,13.4110889 19.1973554,14.8256209 C18.6840717,16.1862301 18.0372054,17.520646 17.2573394,18.8285464 C16.4864097,20.1214597 15.6507233,21.3468654 14.7502897,22.5045656 C13.8773282,23.6269447 13.0566579,24.6282566 12.2877809,25.5088531 C12.2494097,25.6008511 12.2318834,25.60542 12.1966303,25.6146102 Z" id="path-1-copy" fill="#FFFFFF" fill-rule="nonzero"></path>
            <path d="M10.09375,1.5 C11.500007,1.5 12.757807,1.74218508 13.8671875,2.2265625 C14.976568,2.71093992 15.9101525,3.37108957 16.6679688,4.20703125 C17.425785,5.04297293 18.0039043,6.01561945 18.4023438,7.125 C18.8007832,8.23438055 19,9.40624383 19,10.640625 C19,11.8906313 18.7539087,13.1679622 18.2617188,14.4726562 C17.7695288,15.7773503 17.1484412,17.0585875 16.3984375,18.3164062 C15.6484338,19.574225 14.8359419,20.7656194 13.9609375,21.890625 C13.0859331,23.0156306 12.2656288,24.0156206 11.5,24.890625 C11.5,24.9062501 11.3828137,25.0117178 11.1484375,25.2070312 C10.9140613,25.4023447 10.6406266,25.5 10.328125,25.5 L10.2578125,25.5 C9.92968586,25.5 9.65234488,25.4023447 9.42578125,25.2070312 C9.19921762,25.0117178 9.0859375,24.9062501 9.0859375,24.890625 C8.27343344,23.9531203 7.39453598,22.929693 6.44921875,21.8203125 C5.50390152,20.710932 4.62891027,19.5429749 3.82421875,18.3164062 C3.01952723,17.0898376 2.34765895,15.8281315 1.80859375,14.53125 C1.26952855,13.2343685 1,11.9375065 1,10.640625 C1,9.40624383 1.24218508,8.23438055 1.7265625,7.125 C2.21093992,6.01561945 2.86718336,5.04297293 3.6953125,4.20703125 C4.52344164,3.37108957 5.48827574,2.71093992 6.58984375,2.2265625 C7.69141176,1.74218508 8.85936883,1.5 10.09375,1.5 Z M10.375,23.8828125 C11.5625059,22.5234307 12.601558,21.2265687 13.4921875,19.9921875 C14.382817,18.7578063 15.124997,17.5898493 15.71875,16.4882812 C16.312503,15.3867132 16.757811,14.3476611 17.0546875,13.3710938 C17.351564,12.3945264 17.5,11.4843792 17.5,10.640625 C17.5,9.68749523 17.3554702,8.75391082 17.0664062,7.83984375 C16.7773423,6.92577668 16.328128,6.10937859 15.71875,5.390625 C15.109372,4.67187141 14.3398484,4.09375219 13.4101562,3.65625 C12.4804641,3.21874781 11.3750064,3 10.09375,3 C9.06249484,3 8.08594211,3.20312297 7.1640625,3.609375 C6.24218289,4.01562703 5.43750344,4.56640277 4.75,5.26171875 C4.06249656,5.95703473 3.51562703,6.7695266 3.109375,7.69921875 C2.70312297,8.6289109 2.5,9.60936984 2.5,10.640625 C2.5,11.7500055 2.73437266,12.8749943 3.203125,14.015625 C3.67187734,15.1562557 4.26562141,16.2773382 4.984375,17.3789062 C5.70312859,18.4804743 6.4921832,19.5429636 7.3515625,20.5664062 C8.2109418,21.5898489 9.02343367,22.5468705 9.7890625,23.4375 L10.1875,23.8828125 L10.28125,23.9765625 C10.2968751,23.9609374 10.3164061,23.9453126 10.3398437,23.9296875 C10.3632814,23.9140624 10.375,23.8984376 10.375,23.8828125 Z M10.0234375,6.0234375 C11.2734437,6.0234375 12.3359331,6.46483934 13.2109375,7.34765625 C14.0859419,8.23047316 14.5234375,9.28905633 14.5234375,10.5234375 C14.5234375,11.7734438 14.0859419,12.8359331 13.2109375,13.7109375 C12.3359331,14.5859419 11.2734437,15.0234375 10.0234375,15.0234375 C8.78905633,15.0234375 7.73047316,14.5859419 6.84765625,13.7109375 C5.96483934,12.8359331 5.5234375,11.7734438 5.5234375,10.5234375 C5.5234375,9.28905633 5.96483934,8.23047316 6.84765625,7.34765625 C7.73047316,6.46483934 8.78905633,6.0234375 10.0234375,6.0234375 Z M10.0234375,13.5234375 C10.8515666,13.5234375 11.5546846,13.2265655 12.1328125,12.6328125 C12.7109404,12.0390595 13,11.3281291 13,10.5 C13,9.67187086 12.7070342,8.96484668 12.1210938,8.37890625 C11.5351533,7.79296582 10.8281291,7.5 10,7.5 C9.17187086,7.5 8.46484668,7.79296582 7.87890625,8.37890625 C7.29296582,8.96484668 7,9.67187086 7,10.5 C7,11.3281291 7.29687203,12.0390595 7.890625,12.6328125 C8.48437797,13.2265655 9.19530836,13.5234375 10.0234375,13.5234375 Z" id="path-1" fill="#22A7F0"></path>
        </g>
    </g>
</svg>